<?xml version="1.0" encoding="utf-8"?>
<!-- Generator: Adobe Illustrator 25.2.3, SVG Export Plug-In . SVG Version: 6.00 Build 0)  -->
<svg version="1.1" id="Layer_1" xmlns="http://www.w3.org/2000/svg" xmlns:xlink="http://www.w3.org/1999/xlink" x="0px" y="0px"
	 viewBox="0 0 595.28 841.89" style="enable-background:new 0 0 595.28 841.89;" xml:space="preserve">
<style type="text/css">
	.st0{fill:#131313;}
	.st1{fill:#B9B9B9;}
	.st2{fill:#BABABA;}
	.st3{fill:#0F0F0F;}
	.st4{fill:#515151;}
	.st5{fill:#5B5B5B;}
	.st6{fill:#E7E7E7;}
	.st7{fill:#121212;}
	.st8{fill:#1B1B1B;}
	.st9{fill:#191919;}
	.st10{fill:#181818;}
	.st11{fill:#0D0D0D;}
	.st12{fill:#111111;}
	.st13{fill:#171717;}
</style>
<path class="st0" d="M74,257.75c0.7-0.16,1.92-0.2,2-0.51c0.28-1.05-0.87-0.63-1.41-0.84c-1.17-0.46-2.36-0.88-3.54-1.32
	c20.09,2.36,40.28,0.68,60.42,1.28c15.25,0.45,30.33,2.16,45.33,4.63c1.98,0.33,1.97,0.36,4.84,2.68
	c-5.52,1.69-10.49-1.68-15.66-0.83c-0.48,1.48,0.94,1.78,1.7,2.39c45.06,36.07,51.51,112.35-14.97,148.17
	c-5.1,2.75-10.43,5.16-16.46,5.56c-1.07,0.44-1.74,0-2.2-0.91c-0.14-3.26,2.84-3.48,4.94-4.33c17.53-7.07,32.16-17.48,42.9-32.6
	c13.72-19.32,17.13-40.53,12.29-62.98c-3.65-16.94-11.93-31.71-24.77-44.21c-8.05-7.83-17.44-11.85-28.94-11.55
	c-3.03,0.08-6.11,0.31-9.08-0.34c-2.14-0.47-4.12-1.37-1.85-3.9c1.13-0.11,2.26-0.06,2.55-0.06c-11.02,2.25-23.02,0.57-34.94,1.12
	c-5.59,0.26-10.84,3.07-16.64,2.06C77.92,260.78,74.4,261.86,74,257.75z"/>
<path class="st1" d="M74.43,243.34c4.14-12.82,7.91-25.77,14.47-37.68c11.85-21.48,29.61-37.45,48.35-52.57
	c24.96-20.14,54.25-29.45,85.41-33.26c43.23-5.28,86.05-1.84,128.32,8.48c29.15,7.12,52.09,24.78,73.34,44.73
	c35.33,33.16,55.05,74.97,65.63,121.62c10.09,44.5,11.53,89.72,11.18,135.07c-0.09,11.98-0.76,23.96-0.93,35.94
	c-0.06,4.24-0.86,6.84-5.85,5.09c-0.61-0.21-1.31,0.02-1.61,0.91c0.52,1.84,2.33,1.54,3.63,1.84
	c44.46,10.02,60.86,48.23,52.36,86.78c-4.8,21.78-15.51,39.95-35.14,51.79c-12.56,7.58-26.16,9.28-40.44,6.57
	c-1.55-0.3-3.12-1.23-5.24,0.15c3.96,1.81,2.32,4.78,1.98,7.6c-2.02,16.47-8.59,31.01-18.69,44.04
	c-10.51,13.56-18.46,28.9-29.38,42.19c-38.04,46.3-87.06,69.36-146.89,69.09c-33.24-0.15-66.15-3.42-98.02-13.65
	c-30.66-9.84-57.72-25.41-76.66-52.18c-24.71-34.93-40.97-73.13-44.89-116.45c-4.16-45.93-3.48-91.78-1.2-137.71
	c1.05-21.12,2.27-42.22,3.45-63.33c0.11-1.92-0.25-3.99,1.28-6.07c10.48,8.92,21.71,16.17,35.26,19.01
	c3.26,0.43,6.55-0.03,9.82,0.29c7.39,1.02,14.78,0.98,22.17,0c3.84-0.46,7.71,0.32,11.55-0.34c31.63-5.27,50.23-24.47,58.53-54.73
	c8.39-30.61-3.67-66.92-28.76-86.46c-6.28-4.89-13.4-8.04-21.07-9.87c-18.16-4.32-36.46-5.43-54.91-2.06
	c-7.25,1.32-13.93,4.22-21.03,8.4c0.12-7.1,2.22-13.04,3.12-19.14c15.12-13.4,33.09-20.97,52.52-25.3
	c14.02-3.12,28.16-5.21,41.32-1.43c1.75,0.37,1.03-0.49,1.14,0.17c0.02,0.14-0.12,0.17-0.43,0.09c-16.56-4.51-32.76-1.37-48.74,2.82
	c-14.79,3.87-28.65,10.01-40.8,19.57C76.43,245.04,76.37,244.96,74.43,243.34z"/>
<path class="st2" d="M370.14,847.79c-54.26,0-108.52,0-162.79,0c-6.33-5.74-10.96-12.66-13.56-20.77c-1.3-4.05,0.15-8.33,0.08-12.52
	c-0.19-11.56-0.05-23.13,0.01-34.7c0.03-5.64,0.45-5.77,6.2-4.62c11.55,2.31,23.18,3.95,34.89,5.34c18.3,2.17,36.61,2.12,54.91,1.66
	c16.4-0.41,32.31-4.07,47.88-9.36c13.91-4.73,27.03-10.97,39.44-18.78c4.21-2.65,8.12-5.75,12.25-8.51
	c1.41-0.94,2.65-3.09,4.72-2.06c2.11,1.05,1.3,3.22,1.31,5.06c0.04,14.61,0.19,29.23,0.14,43.84c-0.02,5.1-0.13,10.2,0.41,15.32
	c0.4,3.85-1.75,7.06-3.7,10.28c-5.6,9.25-12.03,17.9-18.45,26.57C372.9,845.91,371.66,847.02,370.14,847.79z"/>
<path class="st3" d="M194.99,819.65c0.21-13.97,0.21-27.95,0.09-41.92c-0.02-2.51,0.26-3.94,1.81-4.28
	c-10.01-1.23-19.98-3.21-30.01-3.69c-2.73,4.42-4.83,9.19-6.46,14.14c-0.84,2.56-2.48,4.06-5.03,5.05
	c-7.12,2.78-14.28,5.51-21.17,8.81c-24.6,11.76-47.73,26.32-72.19,38.38c-4.04,1.99-8.3,4.33-10.74,8.6h3
	c16.19-5.85,30.73-15.03,45.85-22.99c15.72-8.28,30.72-17.94,47.48-24.16c5.33-1.98,6.12-1.19,5.58,4.38
	c-1.2,12.29-3.55,24.32-7.25,36.1c-0.74,2.35-1.55,4.88,1.22,6.67h2c1.56-0.91,3.04-1.81,3.71-3.73c3.15-8.96,5.75-18.1,6.68-27.55
	c1.11-11.34,3.24-22.36,7.69-32.88c4.6-10.88,6.67-11.74,17.8-7.56c0.31,0.12,0.62,0.23,0.94,0.34c2.83,1,4.25,3.06,4.49,5.99
	c0.88,10.43-1.12,20.72-1.02,31.57c-2.5-1.81-3.29-4.11-4.77-5.86c-1.87-2.22-3.6-5.91-7.02-3.7c-3.72,2.41-1.1,5.62,0.62,8.18
	c6.39,9.53,12.76,19.07,18.79,28.83c1.75,2.83,3.86,5.13,7.02,6.34h3c-2.93-4.64-5.71-9.39-8.85-13.88
	C195.83,827.41,194.93,823.84,194.99,819.65z"/>
<path class="st3" d="M498.97,830.28c-10.11-4.32-20.03-9.04-29.6-14.42c-13.95-7.84-28.02-15.37-43.4-20.07
	c-1.88-0.57-3.21-1.59-3.92-3.48c-3.26-8.59-8.51-16.34-15.37-21.82c-8.95-7.15-11.24-15.54-10.34-25.72
	c-0.88,0.09-1.65,0.37-2.38,0.85c0,0.68,0,1.36,0,2.04c-0.04,17.63-0.29,35.27,0,52.9c0.1,6.15-1.4,11.31-4.91,16.26
	c-6.54,9.2-12.8,18.6-19.17,27.91h3c1.79-1.23,4-1.9,5.37-3.66c9.4-12.09,17.5-25.01,24.84-38.44c1.14-2.09,0.93-4.15-1.11-5.18
	c-3.52-1.77-3.75-4.68-3.65-7.96c0.15-4.98,1.38-9.87,1.07-14.88c-0.06-0.97,0.03-2.15,1.17-2.52c1.1-0.35,1.91,0.49,2.52,1.25
	c5.43,6.71,11.07,13.3,14.12,21.56c4.58,12.37,7.35,25.11,8.25,38.32c0.27,3.92-0.35,8.44,3.34,11.51h2
	c2.09-1.55,2.47-3.73,2.5-6.18c0.12-10.37-1.34-20.52-3.84-30.55c-0.35-1.41-1.22-2.99,0.01-4.25c1.3-1.33,2.83-0.28,4.18,0.22
	c4.37,1.61,8.69,3.32,12.81,5.5c22.9,12.1,45.62,24.55,69.23,35.26h3.99C513.95,838.23,506.84,833.64,498.97,830.28z"/>
<path class="st4" d="M54.56,847.79c7.44-6.63,16.54-10.55,25.26-14.93c13.98-7.02,27.44-14.96,41.13-22.5
	c10.52-5.8,21.51-10.48,32.69-14.79c1.17-0.45,2.52-1.63,3.66-0.42c1.01,1.07,0.05,2.53-0.11,3.81
	c-1.98,16.53-5.21,32.81-9.76,48.83C116.48,847.79,85.52,847.79,54.56,847.79z"/>
<path class="st4" d="M149.43,847.79c3.64-11.93,7.29-23.81,8.36-36.39c1.13-13.23,5.04-25.75,11.51-37.44
	c1.83-3.31,3.88-4.58,7.64-3.19c3.73,1.38,7.63,2.38,11.51,3.31c3.22,0.77,4.87,2.45,4.79,5.89c-0.32,13.3-0.55,26.61-0.84,39.91
	c-0.01,0.44-0.35,0.87-0.72,1.71c-5.16-4.24-6.69-11.31-11.93-15.11c-0.39,0.28-0.78,0.57-1.18,0.85
	c8.59,13.49,17.19,26.98,25.78,40.46C186.05,847.79,167.74,847.79,149.43,847.79z"/>
<path class="st4" d="M373.14,847.79c7.91-11.69,16.59-22.87,23.41-35.27c1.69-3.07,4.24-5.83,4.48-9.54
	c-2.2-1.09-2.29,2.03-4.38,1.37c-0.43-6.14-0.5-12.38-0.07-18.66c0.31-4.47,0.15-8.96,0.27-13.44c0.03-1.12-0.14-2.52,1.11-3.09
	c1.29-0.58,2.2,0.51,3,1.3c8.45,8.37,15.75,17.48,19.85,28.9c5.63,15.68,7.73,31.91,8.26,48.43
	C410.42,847.79,391.78,847.79,373.14,847.79z"/>
<path class="st4" d="M431.06,847.79c0.47-14.09-1.33-27.89-5.36-41.4c-0.4-1.35-1.63-3.01-0.31-4.19c1.21-1.08,2.87-0.08,4.24,0.4
	c8.98,3.11,17.74,6.82,25.98,11.52c16.5,9.4,33.56,17.69,50.5,26.23c3.71,1.87,7.41,3.83,9.83,7.45
	C487.66,847.79,459.36,847.79,431.06,847.79z"/>
<path class="st5" d="M187.59,36.68c3.56-1.77,7.11-3.53,10.67-5.3c1.01-1.77,2.74-2.49,4.53-3.13c26.81-10.17,53.18-8.52,79.25,2.79
	c1.37,0.6,2.69,0.9,3.24,2.43c1.48,1.02,3.04,1.85,4.87,2.05c27.92,14.78,57.06,26.34,87.85,33.7c16.37,3.91,32.7,8.36,47.23,17.17
	c33.22,20.13,56.44,48.97,67.7,85.88c5.99,19.63,14.4,36.93,27.67,52.28c4.77,5.52,8.8,11.7,12.93,17.74
	c11.88,17.39,16.4,36.47,13.24,57.42c-2.53,16.82-2.91,33.8-3.02,50.8c-0.15,23.8-0.19,47.62-3.96,71.22
	c-3.63,22.72-11.21,43.83-25.85,61.96c-2.35,2.92-4.1,6.46-9.22,4.29c-9.63-4.08-9.34-3.86-9.09-11.25
	c0.84-24.78,1.42-49.55,0.57-74.37c-1.27-37.21-4.64-74.08-14.4-110.14c-11.22-41.5-30.64-78.43-61.96-108.3
	c-19.49-18.58-40.71-34.99-66.76-43.61c-16.81-5.56-34.24-8.42-51.8-10.4c-32.03-3.61-64.03-4.19-96.02,0.79
	c-48.95,7.62-86.31,33.87-116.48,71.85c-4.04,5.08-4.04,5.3-9.03,0.91c-18.6-16.35-31.16-36.28-35.27-60.98
	c-4.32-25.97,6.71-48.41,29.7-61.24c9.63-5.37,19.71-9.67,30.29-12.79c6.65-3.64,14-3.29,20.82-1.98c10.39,2,18.77-0.29,26.84-7.01
	c9.15-7.62,19.18-14.13,29.38-20.34C183.39,37.98,185.3,36.85,187.59,36.68z"/>
<path class="st6" d="M97.51,410.15c-15.64-4.05-29.52-11.21-40.37-23.43c-21.58-24.3-24.84-51.61-13.02-81.31
	c7.24-18.19,17.75-33.47,36.57-41.44c7.13-3.02,14.59-4.59,22.27-4.98c17.38-0.88,34.58-0.05,51.1,6.21
	c3.59,1.36,7.18,2.92,10.07,5.41c19.57,16.91,32.37,37.74,32.89,64.08c0.36,18.57-6.15,35.63-17.17,50.67
	c-10.27,14.02-25.43,19.76-41.57,23.62c-1.61,0.39-3.22,0.8-4.83,1.19c-4.65,2.91-9.98,1.85-15,2.4c-4.75,0.52-9.54-0.06-14.3-0.43
	C101.84,411.82,99.38,411.99,97.51,410.15z"/>
<path class="st7" d="M210.34,14.78c-0.29,0.96-0.57,1.93-0.86,2.89c-1.41,0.57-2.81,1.14-4.22,1.71c-1-0.31-1.99-0.61-2.99-0.92
	C204.68,16.63,207.5,15.68,210.34,14.78z"/>
<g>
	<path class="st0" d="M336.92,418.76c-0.94,0-1.85-0.2-2.64-0.37c-0.28-0.06-0.55-0.12-0.83-0.17
		c-36.39-0.68-63.58-23.59-70.97-59.83c-5.45-26.75-2.64-47.9,8.85-66.59c5.79-9.42,14.16-20.88,28.24-28.13
		c-1.31-0.68-2.48-1.3-3.65-1.99c-4.95-2.94-8.1-6.81-9.1-11.2s0.13-9.25,3.3-14.06c1.52-2.3,3.39-4.34,5.19-6.31
		c0.36-0.39,1.23-1.35,1.23-1.35c0.64-0.72,1.7-1.91,3.3-1.91c0.58,0,1.45,0.17,2.29,0.97c0.94,0.89,1.12,1.82,1.11,2.44
		c-0.02,1.48-1.08,2.42-1.78,3.04c-0.1,0.09-0.19,0.17-0.28,0.25c-2.91,2.81-4.81,5.17-6.16,7.65c-3.2,5.92-2.07,10.42,3.53,14.17
		c3.85,2.57,8.25,3.69,12.91,4.86c1.11,0.28,2.21,0.56,3.31,0.86l0.69,0.19l0.38,0.54c0.01,0,0.02,0,0.04,0
		c0.18,0,0.36-0.02,0.54-0.04c0.3-0.03,0.61-0.05,0.9-0.05c0.34,0,0.64,0.03,0.94,0.09c0.25,0,0.44-0.02,0.63-0.04
		c0.32-0.03,0.64-0.06,0.95-0.06c2.42,0,3.16,1.73,3.37,2.47c0.57,2.05-0.14,4.69-3.81,5.94l-0.47,0.16l-0.49-0.08
		c-1.73-0.28-3.44-0.42-5.08-0.42c-13.58,0-22.28,9.98-29.37,19.32c-16.97,22.38-19.8,47.85-8.92,80.18
		c6.37,18.91,19.58,30.81,40.38,36.38c5.98,1.6,13.9,3.56,22.16,4.45l0.22,0.02l0.21,0.07c2.36,0.82,3.63,2.71,3.59,5.34l-0.01,0.76
		l-0.51,0.56C340,418.13,338.58,418.76,336.92,418.76z"/>
</g>
<g>
	<path class="st0" d="M370.62,416.41c-0.76,0-2.16-0.28-3.05-2.14l-0.17-0.37l-0.02-0.41c-0.17-3.96,2.94-5.02,4.61-5.59
		c0.32-0.11,0.63-0.21,0.93-0.34c15.92-6.77,27.91-16.37,36.66-29.36c11.21-16.64,14.73-35.68,10.45-56.59
		c-3.11-15.2-10.23-28.59-21.15-39.79c-6.6-6.78-14.08-10.07-22.87-10.07c-0.32,0-0.64,0-0.97,0.01l-1.16,0.04
		c-0.85,0.03-1.71,0.06-2.56,0.06c-1.85,0-3.35-0.14-4.72-0.45c-1.35-0.31-3.2-0.91-3.85-2.63c-0.02-0.06-0.05-0.13-0.07-0.2
		c-2.33,0.23-4.92,0.34-7.93,0.34c-2.11,0-4.26-0.05-6.35-0.1c-2.09-0.05-4.26-0.1-6.39-0.1c-1.78,0-3.36,0.04-4.83,0.11
		c-1.76,0.09-3.53,0.52-5.39,0.98c-2.23,0.55-4.53,1.12-7,1.12c-0.91,0-1.77-0.08-2.63-0.23c-0.41-0.08-0.89-0.1-1.39-0.13
		c-1.79-0.08-5.5-0.25-5.93-4.9l-0.03-0.29c-0.12-0.05-1.28-0.49-1.28-0.49l0.97-3.85c8.51,1.05,17.08,1.19,23.59,1.19
		c3.29,0,6.58-0.04,9.87-0.08c3.31-0.04,6.61-0.08,9.92-0.08c3.47,0,6.51,0.04,9.32,0.13c12.5,0.39,25.56,1.8,39.94,4.3
		c2.21,0.38,2.58,0.7,4.96,2.72l2.95,2.52l-3.41,1.1c-1.13,0.36-2.29,0.54-3.54,0.54c-1.81,0-3.49-0.37-5.12-0.72
		c-0.36-0.08-0.72-0.16-1.07-0.23c20.23,18.12,31.17,45.92,28.65,73.18c-2.54,27.44-18.11,50.61-43.86,65.23
		c-4.43,2.52-9.31,4.9-14.97,5.36C371.36,416.34,370.99,416.41,370.62,416.41z"/>
</g>
<g>
	<path class="st8" d="M307.33,668.79c-0.22,0-0.44-0.01-0.67-0.03l-3.55-0.28l2.08-2.88c0.88-1.22,1.85-2.3,2.79-3.35
		c1.83-2.04,3.54-3.95,4.24-6.44c1.29-4.63,1.47-9.68,0.54-15.45c-1.23-7.67-3.7-15.02-7.76-23.13l-1.89-3.77l4.12,0.93
		c4.62,1.04,5.83,4.16,6.63,6.23c2.84,7.43,5.78,16.3,6.05,25.8c0.23,8.21-1.51,13.95-5.67,18.62
		C312.61,666.85,310.6,668.79,307.33,668.79z"/>
</g>
<g>
	<path class="st9" d="M133.98,660.43c-7.65-9.01-10.74-16.79-10.04-25.21c0.88-10.48,7.61-17.59,14.12-24.46
		c0.61-0.65,1.23-1.3,1.83-1.95l3.6-3.85l-0.14,5.27c-0.11,4.02-2.54,6.7-4.49,8.86c-0.29,0.32-0.58,0.64-0.86,0.96
		c-9.43,10.86-9.87,21.89-1.33,33.73c0.66,0.91,1.03,1.93,1.35,2.83l0.11,0.31c0.34,1.03-0.11,1.81-0.41,2.33
		c-0.12,0.21-0.27,0.46-0.43,0.78l-1.35,2.71L133.98,660.43z"/>
</g>
<path class="st10" d="M370.15,413.28c0.38,0.32,0.77,0.65,1.15,0.97c-3.8,2.42-8.2,2.58-12.41,2.79
	c-8.42,0.42-16.89,1.17-25.25-0.82c1.9-0.04,3.8-0.15,5.55-1.03c3.11-3.09,7.14-3.06,11.09-3.3c3.15-0.19,6.31-0.19,9.47-0.21
	c2.29-0.01,4.58,0.01,6.87-0.18C368.18,411.37,369.6,411.44,370.15,413.28z"/>
<path class="st7" d="M91.39,335.42c4.95-2.03,6.23,3.27,9.5,4.58c2.13,0.85-0.5,3.44-1.55,4.88c-2.33,3.21-6.53,3.62-9.98,1.04
	c-3.02-2.26-6.23-4.42-2.85-9.04C88.08,334.74,89.63,334.88,91.39,335.42z"/>
<path class="st6" d="M370.15,413.28c-3.25,0.35-6.5,0.69-9.75,1.04c-8.13,0.55-16.26,0.62-24.38-0.05
	c-45.33-4.97-63.65-23.22-70.59-64.36c-4.52-26.78,2.06-50.47,20.68-70.53c1.24-1.34,2.49-2.7,3.88-3.88
	c7.75-6.52,15.77-12.37,26.83-10c2.05,0.89,4.21,0.94,6.39,0.76c12.12-0.49,24.25-0.5,36.37-0.42c1.73,0.01,3.62-0.71,5.21,0.63
	c4.79,0.35,9.58,0.96,14.38,1c7.56,0.06,13.91,2.81,19.37,7.83c18.48,17.02,28.21,38.17,27.73,63.24
	c-0.65,33.6-17.78,56.8-47.5,71.28C375.99,411.17,373.03,412.13,370.15,413.28z"/>
<path class="st1" d="M336.02,414.27c8.13,0.02,16.26,0.03,24.38,0.05c-7.01,1.79-14.14,0.6-21.22,0.87
	C338.13,414.88,337.07,414.57,336.02,414.27z"/>
<path class="st11" d="M364.8,266.46c-13.86-0.07-27.73,0.96-41.58-0.21c0.96-0.27,1.91-0.79,2.87-0.79
	c16.11-0.05,32.22-0.04,48.37,1C371.23,266.46,368.01,266.46,364.8,266.46z"/>
<path class="st12" d="M325.61,336.29c6.94,0.43,11.17,3.99,10.11,9.21c-0.53,2.62-2.8,4.96-6.01,4.83c-5-0.19-9.41-3.45-9.14-6.41
	C321.08,338.41,322.61,336.1,325.61,336.29z"/>
<g>
	<path class="st7" d="M235.31,509.26c-0.41,0-0.82-0.04-1.23-0.08c-0.29-0.03-0.5-0.05-0.7-0.05c-21.48-0.14-40.94-1.45-59.47-4.01
		c-4.2-0.58-6.69-1.75-8.09-3.79c-1.44-2.11-1.61-4.88-0.56-9.27c4.74-19.76,11.72-39.07,18.47-57.75
		c2.38-6.6,4.85-13.41,7.17-20.15c2.74-7.91,5.49-15.44,8.79-24.47c0.09-0.24,0.16-0.49,0.24-0.74c0.41-1.4,1.01-3.44,3.49-4.76
		l2.08-1.1l0.75,2.23c1.02,3.03,0.05,5.31-0.66,6.98c-0.15,0.36-0.3,0.71-0.42,1.06c-2.9,8.22-5.9,16.56-8.8,24.62l-0.07,0.19
		c-7.04,19.57-14.32,39.8-20.69,59.97c-1.38,4.36-2.63,9.06-3.96,14.79c-0.39,1.68-0.85,4-0.37,4.7c0.53,0.77,3.45,1.15,4.54,1.29
		c11.36,1.48,23.01,2.52,34.62,3.06c5.3,0.25,10.7,0.4,15.93,0.54c2.67,0.07,5.33,0.15,7.98,0.24l0.21,0l0.74-0.01
		c1.16,0,2.64,0.19,3.81,1.64l0.68,0.85l-0.34,1.03C238.84,508.2,237.36,509.26,235.31,509.26z"/>
</g>
<g>
	<path class="st13" d="M266.52,644.09c-1.82,0-3-1-3.71-1.6c-0.21-0.18-0.37-0.31-0.54-0.42c-15.97-10.12-31.13-16.58-46.35-19.72
		c-4.24-0.88-8.52-1.32-12.71-1.32c-12.81,0-25.27,3.96-38.09,12.12c-0.21,0.13-0.45,0.35-0.72,0.58c-0.84,0.73-2.1,1.84-4.09,1.84
		c-0.41,0-0.84-0.05-1.27-0.14l-1.97-0.44l0.46-1.97c0.85-3.66,3.6-5.21,5.81-6.45c0.27-0.15,0.54-0.31,0.81-0.46
		c13.03-7.64,26.32-11.52,39.51-11.52c6.77,0,13.67,1.02,20.51,3.02c13.12,3.84,25.77,9.44,38.66,17.11l0.58,0.34
		c2.08,1.21,4.67,2.72,6.26,5.88l1.03,2.04l-2.16,0.75C267.83,643.97,267.17,644.09,266.52,644.09z"/>
</g>
<g>
	<path class="st0" d="M74.02,249.44c-0.2,0-0.41-0.01-0.63-0.03l-2.19-0.22l0.43-2.16c0.18-0.92,0.38-1.84,0.57-2.76l0.8-3.87
		l2.32,1.15c0.18,0.09,0.28,0.11,0.31,0.11c0.16-0.05,0.58-0.51,0.84-0.78c0.38-0.41,0.82-0.88,1.37-1.26
		c23.01-15.78,47.69-23.79,73.34-23.79c3.55,0,7.17,0.15,10.77,0.45c5.48,0.46,10.64,2.28,14.52,3.81c0.12,0.05,0.24,0.09,0.37,0.13
		c0.85,0.29,2.12,0.74,2.74,2.03c0.26,0.55,0.48,1.44,0.06,2.62c-0.47,1.31-1.56,2.09-2.9,2.09c-0.7,0-1.33-0.21-1.84-0.37l-0.3-0.1
		c-9.04-2.64-18.16-3.98-27.1-3.98c-22.08,0-44.41,8.1-68.27,24.76L79,247.43C77.66,248.37,76.14,249.44,74.02,249.44z"/>
</g>
</svg>
